<svg xmlns="http://www.w3.org/2000/svg" xmlns:xlink="http://www.w3.org/1999/xlink" xmlns:lucid="lucid" width="2372" height="1764.5"><g transform="translate(872 182.49995000000004)" lucid:page-tab-id="0_0"><path d="M-1000-500h2500v2500h-2500z" fill="#fff"/><path d="M-324.4 128.88h8.6a12 12 0 0 0 12-12V-168.5a12 12 0 0 1 12-12H-132a12 12 0 0 1 12 12v8" stroke="#333" fill="none"/><path d="M-343.57 118.88l20 10-20 10" stroke="#333" fill="#fff" fill-opacity="0"/><path d="M-343.57 128.88h20M-110-160.5h-20M-120-140.5v-20" stroke="#333" fill="#fff"/><path d="M-720.5 32.7h-28a12 12 0 0 0-12 12v351.7a12 12 0 0 0 12 12h8" stroke="#333" fill="none"/><path d="M-720.5 22.7v20M-700.5 32.7h-20M-740.5 398.4v20M-720.5 408.4h-20" stroke="#333" fill="#fff"/><path d="M-700-50.3a5 5 0 0 1 5-5h345.7a5 5 0 0 1 5 5v222a5 5 0 0 1-5 5H-695a5 5 0 0 1-5-5z" fill="#fff"/><path d="M-700-15.3v-35a5 5 0 0 1 5-5h345.7a5 5 0 0 1 5 5v35" fill="#dedeff"/><path d="M-700-50.3a5 5 0 0 1 5-5h345.7a5 5 0 0 1 5 5v222a5 5 0 0 1-5 5H-695a5 5 0 0 1-5-5zM-700-15.3h355.7M-522.15-15.3v192" stroke="#282c33" fill="none"/><use xlink:href="#a" transform="matrix(1,0,0,1,-690,-55.3138077324046) translate(0 23.6)"/><use xlink:href="#b" transform="matrix(1,0,0,1,-695,-12.813807732404598) translate(0 17.1)"/><use xlink:href="#c" transform="matrix(1,0,0,1,-517.1494636518962,-12.813807732404598) translate(0 17.1)"/><use xlink:href="#d" transform="matrix(1,0,0,1,-695,19.186192267595402) translate(0 17.1)"/><use xlink:href="#e" transform="matrix(1,0,0,1,-517.1494636518962,19.186192267595402) translate(0 17.1)"/><use xlink:href="#f" transform="matrix(1,0,0,1,-695,51.1861922675954) translate(0 17.1)"/><use xlink:href="#e" transform="matrix(1,0,0,1,-517.1494636518962,51.1861922675954) translate(0 17.1)"/><use xlink:href="#g" transform="matrix(1,0,0,1,-695,83.1861922675954) translate(0 17.1)"/><use xlink:href="#e" transform="matrix(1,0,0,1,-517.1494636518962,83.1861922675954) translate(0 17.1)"/><use xlink:href="#h" transform="matrix(1,0,0,1,-695,115.1861922675954) translate(0 17.1)"/><use xlink:href="#i" transform="matrix(1,0,0,1,-517.1494636518962,115.1861922675954) translate(0 17.1)"/><use xlink:href="#j" transform="matrix(1,0,0,1,-695,147.1861922675954) translate(0 17.1)"/><use xlink:href="#e" transform="matrix(1,0,0,1,-517.1494636518962,147.1861922675954) translate(0 17.1)"/><path d="M-260-135a5 5 0 0 1 5-5H15a5 5 0 0 1 5 5v62a5 5 0 0 1-5 5h-270a5 5 0 0 1-5-5z" fill="#fff"/><path d="M-260-100v-35a5 5 0 0 1 5-5H15a5 5 0 0 1 5 5v35" fill="#dedeff"/><path d="M-260-135a5 5 0 0 1 5-5H15a5 5 0 0 1 5 5v62a5 5 0 0 1-5 5h-270a5 5 0 0 1-5-5zM-260-100H20M-120-100v32" stroke="#282c33" fill="none"/><use xlink:href="#k" transform="matrix(1,0,0,1,-250,-140) translate(0 23.6)"/><use xlink:href="#l" transform="matrix(1,0,0,1,-250,-140) translate(74.85 23.6)"/><use xlink:href="#h" transform="matrix(1,0,0,1,-255,-97.5) translate(0 17.1)"/><use xlink:href="#m" transform="matrix(1,0,0,1,-115,-97.5) translate(0 17.1)"/><path d="M-720 325.4a5 5 0 0 1 5-5h249.5a5 5 0 0 1 5 5v222a5 5 0 0 1-5 5H-715a5 5 0 0 1-5-5z" fill="#fff"/><path d="M-720 360.4v-35a5 5 0 0 1 5-5h249.5a5 5 0 0 1 5 5v35" fill="#dedeff"/><path d="M-720 325.4a5 5 0 0 1 5-5h249.5a5 5 0 0 1 5 5v222a5 5 0 0 1-5 5H-715a5 5 0 0 1-5-5zM-720 360.4h259.5M-581.72 360.4v192" stroke="#282c33" fill="none"/><use xlink:href="#n" transform="matrix(1,0,0,1,-710,320.4062535489871) translate(0 23.6)"/><use xlink:href="#o" transform="matrix(1,0,0,1,-715,362.9062535489871) translate(0 17.1)"/><use xlink:href="#c" transform="matrix(1,0,0,1,-576.7201654241385,362.9062535489871) translate(0 17.1)"/><use xlink:href="#p" transform="matrix(1,0,0,1,-715,394.9062535489871) translate(0 17.1)"/><use xlink:href="#c" transform="matrix(1,0,0,1,-576.7201654241385,394.9062535489871) translate(0 17.1)"/><use xlink:href="#q" transform="matrix(1,0,0,1,-715,426.9062535489871) translate(0 17.1)"/><use xlink:href="#e" transform="matrix(1,0,0,1,-576.7201654241385,426.9062535489871) translate(0 17.1)"/><use xlink:href="#r" transform="matrix(1,0,0,1,-715,458.9062535489871) translate(0 17.1)"/><use xlink:href="#e" transform="matrix(1,0,0,1,-576.7201654241385,458.9062535489871) translate(0 17.1)"/><use xlink:href="#s" transform="matrix(1,0,0,1,-715,490.9062535489871) translate(0 17.1)"/><use xlink:href="#t" transform="matrix(1,0,0,1,-576.7201654241385,490.9062535489871) translate(0 17.1)"/><use xlink:href="#u" transform="matrix(1,0,0,1,-715,522.906253548987) translate(0 17.1)"/><use xlink:href="#v" transform="matrix(1,0,0,1,-576.7201654241385,522.906253548987) translate(0 17.1)"/><path d="M-360 325.4a5 5 0 0 1 5-5h270a5 5 0 0 1 5 5v254a5 5 0 0 1-5 5h-270a5 5 0 0 1-5-5z" fill="#fff"/><path d="M-360 360.4v-35a5 5 0 0 1 5-5h270a5 5 0 0 1 5 5v35" fill="#dedeff"/><path d="M-360 325.4a5 5 0 0 1 5-5h270a5 5 0 0 1 5 5v254a5 5 0 0 1-5 5h-270a5 5 0 0 1-5-5zM-360 360.4h280M-221.72 360.4v224" stroke="#282c33" fill="none"/><use xlink:href="#w" transform="matrix(1,0,0,1,-350,320.4062535489871) translate(0 23.6)"/><use xlink:href="#x" transform="matrix(1,0,0,1,-350,320.4062535489871) translate(5 23.6)"/><use xlink:href="#y" transform="matrix(1,0,0,1,-355,362.9062535489871) translate(0 17.1)"/><use xlink:href="#c" transform="matrix(1,0,0,1,-216.72016542413854,362.9062535489871) translate(0 17.1)"/><use xlink:href="#p" transform="matrix(1,0,0,1,-355,394.9062535489871) translate(0 17.1)"/><use xlink:href="#c" transform="matrix(1,0,0,1,-216.72016542413854,394.9062535489871) translate(0 17.1)"/><use xlink:href="#d" transform="matrix(1,0,0,1,-355,426.9062535489871) translate(0 17.1)"/><use xlink:href="#e" transform="matrix(1,0,0,1,-216.72016542413854,426.9062535489871) translate(0 17.1)"/><use xlink:href="#z" transform="matrix(1,0,0,1,-355,458.9062535489871) translate(0 17.1)"/><use xlink:href="#e" transform="matrix(1,0,0,1,-216.72016542413854,458.9062535489871) translate(0 17.1)"/><use xlink:href="#A" transform="matrix(1,0,0,1,-355,490.9062535489871) translate(0 17.1)"/><use xlink:href="#e" transform="matrix(1,0,0,1,-216.72016542413854,490.9062535489871) translate(0 17.1)"/><use xlink:href="#B" transform="matrix(1,0,0,1,-355,522.906253548987) translate(0 17.1)"/><use xlink:href="#C" transform="matrix(1,0,0,1,-216.72016542413854,522.906253548987) translate(0 17.1)"/><use xlink:href="#D" transform="matrix(1,0,0,1,-355,554.906253548987) translate(0 17.1)"/><use xlink:href="#C" transform="matrix(1,0,0,1,-216.72016542413854,554.906253548987) translate(0 17.1)"/><path d="M-360 665a5 5 0 0 1 5-5h270a5 5 0 0 1 5 5v126a5 5 0 0 1-5 5h-270a5 5 0 0 1-5-5z" fill="#fff"/><path d="M-360 700v-35a5 5 0 0 1 5-5h270a5 5 0 0 1 5 5v35" fill="#dedeff"/><path d="M-360 665a5 5 0 0 1 5-5h270a5 5 0 0 1 5 5v126a5 5 0 0 1-5 5h-270a5 5 0 0 1-5-5zM-360 700h280M-221.72 700v96" stroke="#282c33" fill="none"/><use xlink:href="#E" transform="matrix(1,0,0,1,-350,660) translate(0 23.6)"/><use xlink:href="#F" transform="matrix(1,0,0,1,-350,660) translate(56.85000000000001 23.6)"/><use xlink:href="#G" transform="matrix(1,0,0,1,-355,702.5) translate(0 17.1)"/><use xlink:href="#c" transform="matrix(1,0,0,1,-216.72016542413854,702.5) translate(0 17.1)"/><use xlink:href="#p" transform="matrix(1,0,0,1,-355,734.5) translate(0 17.1)"/><use xlink:href="#c" transform="matrix(1,0,0,1,-216.72016542413854,734.5) translate(0 17.1)"/><use xlink:href="#H" transform="matrix(1,0,0,1,-355,766.5) translate(0 17.1)"/><use xlink:href="#c" transform="matrix(1,0,0,1,-216.72016542413854,766.5) translate(0 17.1)"/><path d="M-421.63 197.2v205.2a6 6 0 0 0 6 6h35.72" stroke="#3a414a" fill="none"/><path d="M-431.63 197.2h20M-421.63 177.2v20" stroke="#3a414a" fill="#fff"/><path d="M-360.72 418.4l-20-10 20-10" stroke="#3a414a" fill="#fff" fill-opacity="0"/><path d="M-360.72 408.4h-20" stroke="#3a414a" fill="#fff"/><path d="M61 325.4a5 5 0 0 1 5-5h249.5a5 5 0 0 1 5 5v254a5 5 0 0 1-5 5H66a5 5 0 0 1-5-5z" fill="#fff"/><path d="M61 360.4v-35a5 5 0 0 1 5-5h249.5a5 5 0 0 1 5 5v35" fill="#dedeff"/><path d="M61 325.4a5 5 0 0 1 5-5h249.5a5 5 0 0 1 5 5v254a5 5 0 0 1-5 5H66a5 5 0 0 1-5-5zM61 360.4h259.5M199.28 360.4v224" stroke="#282c33" fill="none"/><use xlink:href="#I" transform="matrix(1,0,0,1,70.99998003655887,320.4062535489871) translate(0 23.6)"/><use xlink:href="#J" transform="matrix(1,0,0,1,65.99998003655887,362.9062535489871) translate(0 17.1)"/><use xlink:href="#c" transform="matrix(1,0,0,1,204.27981461242032,362.9062535489871) translate(0 17.1)"/><use xlink:href="#p" transform="matrix(1,0,0,1,65.99998003655887,394.9062535489871) translate(0 17.1)"/><use xlink:href="#c" transform="matrix(1,0,0,1,204.27981461242032,394.9062535489871) translate(0 17.1)"/><use xlink:href="#H" transform="matrix(1,0,0,1,65.99998003655887,426.9062535489871) translate(0 17.1)"/><use xlink:href="#c" transform="matrix(1,0,0,1,204.27981461242032,426.9062535489871) translate(0 17.1)"/><use xlink:href="#K" transform="matrix(1,0,0,1,65.99998003655887,458.9062535489871) translate(0 17.1)"/><use xlink:href="#e" transform="matrix(1,0,0,1,204.27981461242032,458.9062535489871) translate(0 17.1)"/><use xlink:href="#L" transform="matrix(1,0,0,1,65.99998003655887,490.9062535489871) translate(0 17.1)"/><use xlink:href="#e" transform="matrix(1,0,0,1,204.27981461242032,490.9062535489871) translate(0 17.1)"/><use xlink:href="#B" transform="matrix(1,0,0,1,65.99998003655887,522.906253548987) translate(0 17.1)"/><use xlink:href="#M" transform="matrix(1,0,0,1,204.27981461242032,522.906253548987) translate(0 17.1)"/><use xlink:href="#N" transform="matrix(1,0,0,1,65.99998003655887,554.906253548987) translate(0 17.1)"/><use xlink:href="#e" transform="matrix(1,0,0,1,204.27981461242032,554.906253548987) translate(0 17.1)"/><path d="M500 325a5 5 0 0 1 5-5h249.5a5 5 0 0 1 5 5v254a5 5 0 0 1-5 5H505a5 5 0 0 1-5-5z" fill="#fff"/><path d="M500 360v-35a5 5 0 0 1 5-5h249.5a5 5 0 0 1 5 5v35" fill="#dedeff"/><path d="M500 325a5 5 0 0 1 5-5h249.5a5 5 0 0 1 5 5v254a5 5 0 0 1-5 5H505a5 5 0 0 1-5-5zM500 360h259.5M638.28 360v224" stroke="#282c33" fill="none"/><use xlink:href="#O" transform="matrix(1,0,0,1,510,320) translate(0 23.6)"/><use xlink:href="#o" transform="matrix(1,0,0,1,505,362.5) translate(0 17.1)"/><use xlink:href="#c" transform="matrix(1,0,0,1,643.2798345758615,362.5) translate(0 17.1)"/><use xlink:href="#P" transform="matrix(1,0,0,1,505,394.5) translate(0 17.1)"/><use xlink:href="#c" transform="matrix(1,0,0,1,643.2798345758615,394.5) translate(0 17.1)"/><use xlink:href="#q" transform="matrix(1,0,0,1,505,426.5) translate(0 17.1)"/><use xlink:href="#e" transform="matrix(1,0,0,1,643.2798345758615,426.5) translate(0 17.1)"/><use xlink:href="#r" transform="matrix(1,0,0,1,505,458.5) translate(0 17.1)"/><use xlink:href="#e" transform="matrix(1,0,0,1,643.2798345758615,458.5) translate(0 17.1)"/><use xlink:href="#s" transform="matrix(1,0,0,1,505,490.5) translate(0 17.1)"/><use xlink:href="#t" transform="matrix(1,0,0,1,643.2798345758615,490.5) translate(0 17.1)"/><use xlink:href="#Q" transform="matrix(1,0,0,1,505,522.5) translate(0 17.1)"/><use xlink:href="#e" transform="matrix(1,0,0,1,643.2798345758615,522.5) translate(0 17.1)"/><use xlink:href="#R" transform="matrix(1,0,0,1,505,554.5) translate(0 17.1)"/><use xlink:href="#e" transform="matrix(1,0,0,1,643.2798345758615,554.5) translate(0 17.1)"/><path d="M-40 645a5 5 0 0 1 5-5h249.5a5 5 0 0 1 5 5v158a5 5 0 0 1-5 5H-35a5 5 0 0 1-5-5z" fill="#fff"/><path d="M-40 680v-35a5 5 0 0 1 5-5h249.5a5 5 0 0 1 5 5v35" fill="#dedeff"/><path d="M-40 645a5 5 0 0 1 5-5h249.5a5 5 0 0 1 5 5v158a5 5 0 0 1-5 5H-35a5 5 0 0 1-5-5zM-40 680h259.5M98.28 680v128" stroke="#282c33" fill="none"/><use xlink:href="#S" transform="matrix(1,0,0,1,-30,640) translate(0 23.6)"/><use xlink:href="#T" transform="matrix(1,0,0,1,-35,682.5) translate(0 17.1)"/><use xlink:href="#c" transform="matrix(1,0,0,1,103.27983457586146,682.5) translate(0 17.1)"/><use xlink:href="#U" transform="matrix(1,0,0,1,-35,714.5) translate(0 17.1)"/><use xlink:href="#c" transform="matrix(1,0,0,1,103.27983457586146,714.5) translate(0 17.1)"/><use xlink:href="#B" transform="matrix(1,0,0,1,-35,746.5) translate(0 17.1)"/><use xlink:href="#M" transform="matrix(1,0,0,1,103.27983457586146,746.5) translate(0 17.1)"/><use xlink:href="#p" transform="matrix(1,0,0,1,-35,778.5) translate(0 17.1)"/><use xlink:href="#c" transform="matrix(1,0,0,1,103.27983457586146,778.5) translate(0 17.1)"/><path d="M259.5 645a5 5 0 0 1 5-5H514a5 5 0 0 1 5 5v158a5 5 0 0 1-5 5H264.5a5 5 0 0 1-5-5z" fill="#fff"/><path d="M259.5 680v-35a5 5 0 0 1 5-5H514a5 5 0 0 1 5 5v35" fill="#dedeff"/><path d="M259.5 645a5 5 0 0 1 5-5H514a5 5 0 0 1 5 5v158a5 5 0 0 1-5 5H264.5a5 5 0 0 1-5-5zM259.5 680H519M397.78 680v128" stroke="#282c33" fill="none"/><use xlink:href="#V" transform="matrix(1,0,0,1,269.5,640) translate(0 23.6)"/><use xlink:href="#W" transform="matrix(1,0,0,1,264.5,682.5) translate(0 17.1)"/><use xlink:href="#c" transform="matrix(1,0,0,1,402.77983457586146,682.5) translate(0 17.1)"/><use xlink:href="#U" transform="matrix(1,0,0,1,264.5,714.5) translate(0 17.1)"/><use xlink:href="#c" transform="matrix(1,0,0,1,402.77983457586146,714.5) translate(0 17.1)"/><use xlink:href="#B" transform="matrix(1,0,0,1,264.5,746.5) translate(0 17.1)"/><use xlink:href="#M" transform="matrix(1,0,0,1,402.77983457586146,746.5) translate(0 17.1)"/><use xlink:href="#p" transform="matrix(1,0,0,1,264.5,778.5) translate(0 17.1)"/><use xlink:href="#c" transform="matrix(1,0,0,1,402.77983457586146,778.5) translate(0 17.1)"/><path d="M40.5 568.85h-14a6 6 0 0 1-6-6V382.1a6 6 0 0 1 6-6h14.6" stroke="#3a414a" fill="none"/><path d="M40.5 558.85v20M60.5 568.85h-20" stroke="#3a414a" fill="#fff"/><path d="M60.28 386.1l-20-10 20-10" stroke="#3a414a" fill="#fff" fill-opacity="0"/><path d="M60.28 376.1h-20" stroke="#3a414a" fill="#fff"/><path d="M-60 727.5V382.1a6 6 0 0 1 6-6h95.1" stroke="#3a414a" fill="none"/><path d="M-60.24 717.5l-.5 20M-40.5 728l-20-.5" stroke="#3a414a" fill="#fff"/><path d="M60.28 386.1l-20-10 20-10" stroke="#3a414a" fill="#fff" fill-opacity="0"/><path d="M60.28 376.1h-20" stroke="#3a414a" fill="#fff"/><path d="M239 728h-3a6 6 0 0 1-6-6V611.9a6 6 0 0 0-6-6h-31.66a1.6 1.6 0 0 1-1.6-1.58" stroke="#3a414a" fill="none"/><path d="M239 718v20M259 728h-20" stroke="#3a414a" fill="#fff"/><path d="M200.75 585.13l-10 20-10-20" stroke="#3a414a" fill="#fff" fill-opacity="0"/><path d="M190.75 585.13v20" stroke="#3a414a" fill="#fff"/><path d="M40.5 408.24h-75a6 6 0 0 1-6-6V9.94a6 6 0 0 0-6-6h-277.9" stroke="#3a414a" fill="none"/><path d="M40.5 398.24v20M60.5 408.24h-20" stroke="#3a414a" fill="#fff"/><path d="M-343.57-6.06l20 10-20 10" stroke="#3a414a" fill="#fff" fill-opacity="0"/><path d="M-343.57 3.94h20" stroke="#3a414a" fill="#fff"/><path d="M479.5 408H386a6 6 0 0 1-6-6V6.52a6 6 0 0 0-6-6h-698.4" stroke="#3a414a" fill="none"/><path d="M479.5 398v20M499.5 408h-20" stroke="#3a414a" fill="#fff"/><path d="M-343.57-9.48l20 10-20 10" stroke="#3a414a" fill="#fff" fill-opacity="0"/><path d="M-343.57.52h20" stroke="#3a414a" fill="#fff"/><path d="M-380.5 376.13h-14a6 6 0 0 0-6 6V774.2a6 6 0 0 0 6 6h14.6" stroke="#3a414a" fill="none"/><path d="M-380.5 366.13v20M-360.5 376.13h-20" stroke="#3a414a" fill="#fff"/><path d="M-360.72 790.2l-20-10 20-10" stroke="#3a414a" fill="#fff" fill-opacity="0"/><path d="M-360.72 780.2h-20" stroke="#3a414a" fill="#fff"/><path d="M860 325.4a5 5 0 0 1 5-5h249.5a5 5 0 0 1 5 5v94a5 5 0 0 1-5 5H865a5 5 0 0 1-5-5z" fill="#fff"/><path d="M860 360.4v-35a5 5 0 0 1 5-5h249.5a5 5 0 0 1 5 5v35" fill="#dedeff"/><path d="M860 325.4a5 5 0 0 1 5-5h249.5a5 5 0 0 1 5 5v94a5 5 0 0 1-5 5H865a5 5 0 0 1-5-5zM860 360.4h259.5M1013.45 360.4v64" stroke="#282c33" fill="none"/><use xlink:href="#X" transform="matrix(1,0,0,1,870,320.4062535489871) translate(0 23.6)"/><use xlink:href="#Y" transform="matrix(1,0,0,1,865,362.9062535489871) translate(0 17.1)"/><use xlink:href="#c" transform="matrix(1,0,0,1,1018.4491392801256,362.9062535489871) translate(0 17.1)"/><use xlink:href="#Z" transform="matrix(1,0,0,1,865,394.9062535489871) translate(0 17.1)"/><use xlink:href="#e" transform="matrix(1,0,0,1,1018.4491392801256,394.9062535489871) translate(0 17.1)"/><path d="M1220 325.4a5 5 0 0 1 5-5h249.5a5 5 0 0 1 5 5v222a5 5 0 0 1-5 5H1225a5 5 0 0 1-5-5z" fill="#fff"/><path d="M1220 360.4v-35a5 5 0 0 1 5-5h249.5a5 5 0 0 1 5 5v35" fill="#dedeff"/><path d="M1220 325.4a5 5 0 0 1 5-5h249.5a5 5 0 0 1 5 5v222a5 5 0 0 1-5 5H1225a5 5 0 0 1-5-5zM1220 360.4h259.5M1378.5 360.4v192" stroke="#282c33" fill="none"/><use xlink:href="#aa" transform="matrix(1,0,0,1,1230,320.406253548987) translate(0 23.6)"/><use xlink:href="#ab" transform="matrix(1,0,0,1,1225,362.906253548987) translate(0 17.1)"/><use xlink:href="#c" transform="matrix(1,0,0,1,1383.4872196139795,362.906253548987) translate(0 17.1)"/><use xlink:href="#p" transform="matrix(1,0,0,1,1225,394.906253548987) translate(0 17.1)"/><use xlink:href="#c" transform="matrix(1,0,0,1,1383.4872196139795,394.906253548987) translate(0 17.1)"/><use xlink:href="#ac" transform="matrix(1,0,0,1,1225,426.906253548987) translate(0 17.1)"/><use xlink:href="#c" transform="matrix(1,0,0,1,1383.4872196139795,426.906253548987) translate(0 17.1)"/><use xlink:href="#ad" transform="matrix(1,0,0,1,1225,458.906253548987) translate(0 17.1)"/><use xlink:href="#e" transform="matrix(1,0,0,1,1383.4872196139795,458.906253548987) translate(0 17.1)"/><use xlink:href="#B" transform="matrix(1,0,0,1,1225,490.906253548987) translate(0 17.1)"/><use xlink:href="#M" transform="matrix(1,0,0,1,1383.4872196139795,490.906253548987) translate(0 17.1)"/><use xlink:href="#ae" transform="matrix(1,0,0,1,1225,522.906253548987) translate(0 17.1)"/><use xlink:href="#af" transform="matrix(1,0,0,1,1383.4872196139795,522.906253548987) translate(0 17.1)"/><path d="M-349.75 945a5 5 0 0 1 5-5h249.5a5 5 0 0 1 5 5v254a5 5 0 0 1-5 5h-249.5a5 5 0 0 1-5-5z" fill="#fff"/><path d="M-349.75 980v-35a5 5 0 0 1 5-5h249.5a5 5 0 0 1 5 5v35" fill="#dedeff"/><path d="M-349.75 945a5 5 0 0 1 5-5h249.5a5 5 0 0 1 5 5v254a5 5 0 0 1-5 5h-249.5a5 5 0 0 1-5-5zM-349.75 980h259.5M-211.47 980v224" stroke="#282c33" fill="none"/><use xlink:href="#ag" transform="matrix(1,0,0,1,-339.75,940) translate(0 23.6)"/><use xlink:href="#ah" transform="matrix(1,0,0,1,-344.75,982.5) translate(0 17.1)"/><use xlink:href="#c" transform="matrix(1,0,0,1,-206.47016542413854,982.5) translate(0 17.1)"/><use xlink:href="#p" transform="matrix(1,0,0,1,-344.75,1014.5) translate(0 17.1)"/><use xlink:href="#c" transform="matrix(1,0,0,1,-206.47016542413854,1014.5) translate(0 17.1)"/><use xlink:href="#ai" transform="matrix(1,0,0,1,-344.75,1046.5) translate(0 17.1)"/><use xlink:href="#c" transform="matrix(1,0,0,1,-206.47016542413854,1046.5) translate(0 17.1)"/><use xlink:href="#K" transform="matrix(1,0,0,1,-344.75,1078.5) translate(0 17.1)"/><use xlink:href="#e" transform="matrix(1,0,0,1,-206.47016542413854,1078.5) translate(0 17.1)"/><use xlink:href="#B" transform="matrix(1,0,0,1,-344.75,1110.5) translate(0 17.1)"/><use xlink:href="#M" transform="matrix(1,0,0,1,-206.47016542413854,1110.5) translate(0 17.1)"/><use xlink:href="#aj" transform="matrix(1,0,0,1,-344.75,1142.5) translate(0 17.1)"/><use xlink:href="#M" transform="matrix(1,0,0,1,-206.47016542413854,1142.5) translate(0 17.1)"/><use xlink:href="#ak" transform="matrix(1,0,0,1,-344.75,1174.5) translate(0 17.1)"/><use xlink:href="#M" transform="matrix(1,0,0,1,-206.47016542413854,1174.5) translate(0 17.1)"/><path d="M1199.5 440.4h-23.75a6 6 0 0 1-6-6v-52a6 6 0 0 0-6-6h-24.34" stroke="#3a414a" fill="none"/><path d="M1199.5 430.4v20M1219.5 440.4h-20" stroke="#3a414a" fill="#fff"/><path d="M1120.22 366.4l20 10-20 10" stroke="#3a414a" fill="#fff" fill-opacity="0"/><path d="M1120.22 376.4h20" stroke="#3a414a" fill="#fff"/><path d="M1200 407.8V6.52a6 6 0 0 0-6-6H-324.4" stroke="#3a414a" fill="none"/><path d="M1199.76 397.8l-.5 19.98M1219.5 408.3l-20-.5" stroke="#3a414a" fill="#fff"/><path d="M-343.57-9.48l20 10-20 10" stroke="#3a414a" fill="#fff" fill-opacity="0"/><path d="M-343.57.52h20" stroke="#3a414a" fill="#fff"/><path d="M-720 945a5 5 0 0 1 5-5h249.5a5 5 0 0 1 5 5v94a5 5 0 0 1-5 5H-715a5 5 0 0 1-5-5z" fill="#fff"/><path d="M-720 980v-35a5 5 0 0 1 5-5h249.5a5 5 0 0 1 5 5v35" fill="#dedeff"/><path d="M-720 945a5 5 0 0 1 5-5h249.5a5 5 0 0 1 5 5v94a5 5 0 0 1-5 5H-715a5 5 0 0 1-5-5zM-720 980h259.5M-566.55 980v64" stroke="#282c33" fill="none"/><use xlink:href="#al" transform="matrix(1,0,0,1,-710,940) translate(0 23.6)"/><use xlink:href="#am" transform="matrix(1,0,0,1,-715,982.5) translate(0 17.1)"/><use xlink:href="#c" transform="matrix(1,0,0,1,-561.5508607198744,982.5) translate(0 17.1)"/><use xlink:href="#Z" transform="matrix(1,0,0,1,-715,1014.5) translate(0 17.1)"/><use xlink:href="#e" transform="matrix(1,0,0,1,-561.5508607198744,1014.5) translate(0 17.1)"/><path d="M-370.25 1059.95h-28.88a6 6 0 0 1-6-6V1002a6 6 0 0 0-6-6h-29.46" stroke="#3a414a" fill="none"/><path d="M-370.25 1049.95v20M-350.25 1059.95h-20" stroke="#3a414a" fill="#fff"/><path d="M-459.78 986l20 10-20 10" stroke="#3a414a" fill="#fff" fill-opacity="0"/><path d="M-459.78 996h20" stroke="#3a414a" fill="#fff"/><path d="M-370.25 1027.83a1 1 0 0 1-1-1V926a6 6 0 0 0-6-6H-804a6 6 0 0 1-6-6V6.52a6 6 0 0 1 6-6h84.1" stroke="#3a414a" fill="none"/><path d="M-370.25 1017.83v20M-350.25 1027.83h-20" stroke="#3a414a" fill="#fff"/><path d="M-700.72 10.52l-20-10 20-10" stroke="#3a414a" fill="#fff" fill-opacity="0"/><path d="M-700.72.52h-20" stroke="#3a414a" fill="#fff"/><path d="M-740.5 536.8H-864a6 6 0 0 0-6 6V1574a6 6 0 0 0 6 6H623.75a6 6 0 0 0 6-6V603.9" stroke="#3a414a" fill="none"/><path d="M-740.5 526.8v20M-720.5 536.8h-20" stroke="#3a414a" fill="#fff"/><path d="M639.75 584.72l-10 20-10-20" stroke="#3a414a" fill="#fff" fill-opacity="0"/><path d="M629.75 584.72v20" stroke="#3a414a" fill="#fff"/><defs><path fill="#333" d="M232-93c-1 65-40 97-104 97C67 4 28-28 28-90v-158h33c8 89-33 224 67 224 102 0 64-133 71-224h33v155" id="an"/><path fill="#333" d="M135-143c-3-34-86-38-87 0 15 53 115 12 119 90S17 21 10-45l28-5c4 36 97 45 98 0-10-56-113-15-118-90-4-57 82-63 122-42 12 7 21 19 24 35" id="ao"/><path fill="#333" d="M100-194c63 0 86 42 84 106H49c0 40 14 67 53 68 26 1 43-12 49-29l28 8c-11 28-37 45-77 45C44 4 14-33 15-96c1-61 26-98 85-98zm52 81c6-60-76-77-97-28-3 7-6 17-6 28h103" id="ap"/><path fill="#333" d="M114-163C36-179 61-72 57 0H25l-1-190h30c1 12-1 29 2 39 6-27 23-49 58-41v29" id="aq"/><g id="a"><use transform="matrix(0.05,0,0,0.05,0,0)" xlink:href="#an"/><use transform="matrix(0.05,0,0,0.05,12.950000000000001,0)" xlink:href="#ao"/><use transform="matrix(0.05,0,0,0.05,21.950000000000003,0)" xlink:href="#ap"/><use transform="matrix(0.05,0,0,0.05,31.950000000000003,0)" xlink:href="#aq"/><use transform="matrix(0.05,0,0,0.05,37.900000000000006,0)" xlink:href="#ao"/></g><path fill="#333" d="M33 0v-248h34V0H33" id="ar"/><path fill="#333" d="M85-194c31 0 48 13 60 33l-1-100h32l1 261h-30c-2-10 0-23-3-31C134-8 116 4 85 4 32 4 16-35 15-94c0-66 23-100 70-100zm9 24c-40 0-46 34-46 75 0 40 6 74 45 74 42 0 51-32 51-76 0-42-9-74-50-73" id="as"/><g id="b"><use transform="matrix(0.05,0,0,0.05,0,0)" xlink:href="#an"/><use transform="matrix(0.05,0,0,0.05,12.950000000000001,0)" xlink:href="#ao"/><use transform="matrix(0.05,0,0,0.05,21.950000000000003,0)" xlink:href="#ap"/><use transform="matrix(0.05,0,0,0.05,31.950000000000003,0)" xlink:href="#aq"/><use transform="matrix(0.05,0,0,0.05,37.900000000000006,0)" xlink:href="#ar"/><use transform="matrix(0.05,0,0,0.05,42.900000000000006,0)" xlink:href="#as"/><path fill="#333" d="M-.9 1.25h54.7v1.32H-.9z"/></g><path fill="#333" d="M24-231v-30h32v30H24zM24 0v-190h32V0H24" id="at"/><path fill="#333" d="M117-194c89-4 53 116 60 194h-32v-121c0-31-8-49-39-48C34-167 62-67 57 0H25l-1-190h30c1 10-1 24 2 32 11-22 29-35 61-36" id="au"/><path fill="#333" d="M59-47c-2 24 18 29 38 22v24C64 9 27 4 27-40v-127H5v-23h24l9-43h21v43h35v23H59v120" id="av"/><g id="c"><use transform="matrix(0.05,0,0,0.05,0,0)" xlink:href="#at"/><use transform="matrix(0.05,0,0,0.05,3.95,0)" xlink:href="#au"/><use transform="matrix(0.05,0,0,0.05,13.949999999999998,0)" xlink:href="#av"/></g><path fill="#333" d="M190 0L58-211 59 0H30v-248h39L202-35l-2-213h31V0h-41" id="aw"/><path fill="#333" d="M141-36C126-15 110 5 73 4 37 3 15-17 15-53c-1-64 63-63 125-63 3-35-9-54-41-54-24 1-41 7-42 31l-33-3c5-37 33-52 76-52 45 0 72 20 72 64v82c-1 20 7 32 28 27v20c-31 9-61-2-59-35zM48-53c0 20 12 33 32 33 41-3 63-29 60-74-43 2-92-5-92 41" id="ax"/><path fill="#333" d="M210-169c-67 3-38 105-44 169h-31v-121c0-29-5-50-35-48C34-165 62-65 56 0H25l-1-190h30c1 10-1 24 2 32 10-44 99-50 107 0 11-21 27-35 58-36 85-2 47 119 55 194h-31v-121c0-29-5-49-35-48" id="ay"/><g id="d"><use transform="matrix(0.05,0,0,0.05,0,0)" xlink:href="#aw"/><use transform="matrix(0.05,0,0,0.05,12.950000000000001,0)" xlink:href="#ax"/><use transform="matrix(0.05,0,0,0.05,22.950000000000003,0)" xlink:href="#ay"/><use transform="matrix(0.05,0,0,0.05,37.900000000000006,0)" xlink:href="#ap"/></g><path fill="#333" d="M177-190C167-65 218 103 67 71c-23-6-38-20-44-43l32-5c15 47 100 32 89-28v-30C133-14 115 1 83 1 29 1 15-40 15-95c0-56 16-97 71-98 29-1 48 16 59 35 1-10 0-23 2-32h30zM94-22c36 0 50-32 50-73 0-42-14-75-50-75-39 0-46 34-46 75s6 73 46 73" id="az"/><g id="e"><use transform="matrix(0.05,0,0,0.05,0,0)" xlink:href="#ao"/><use transform="matrix(0.05,0,0,0.05,9,0)" xlink:href="#av"/><use transform="matrix(0.05,0,0,0.05,14,0)" xlink:href="#aq"/><use transform="matrix(0.05,0,0,0.05,19.95,0)" xlink:href="#at"/><use transform="matrix(0.05,0,0,0.05,23.9,0)" xlink:href="#au"/><use transform="matrix(0.05,0,0,0.05,33.9,0)" xlink:href="#az"/></g><path fill="#333" d="M205 0l-28-72H64L36 0H1l101-248h38L239 0h-34zm-38-99l-47-123c-12 45-31 82-46 123h93" id="aA"/><g id="f"><use transform="matrix(0.05,0,0,0.05,0,0)" xlink:href="#aA"/><use transform="matrix(0.05,0,0,0.05,12,0)" xlink:href="#as"/><use transform="matrix(0.05,0,0,0.05,22,0)" xlink:href="#as"/><use transform="matrix(0.05,0,0,0.05,32,0)" xlink:href="#aq"/><use transform="matrix(0.05,0,0,0.05,37.95,0)" xlink:href="#ap"/><use transform="matrix(0.05,0,0,0.05,47.95,0)" xlink:href="#ao"/><use transform="matrix(0.05,0,0,0.05,56.95,0)" xlink:href="#ao"/></g><path fill="#333" d="M84 4C-5 8 30-112 23-190h32v120c0 31 7 50 39 49 72-2 45-101 50-169h31l1 190h-30c-1-10 1-25-2-33-11 22-28 36-60 37" id="aB"/><g id="g"><use transform="matrix(0.05,0,0,0.05,0,0)" xlink:href="#ao"/><use transform="matrix(0.05,0,0,0.05,9,0)" xlink:href="#aB"/><use transform="matrix(0.05,0,0,0.05,19,0)" xlink:href="#aq"/><use transform="matrix(0.05,0,0,0.05,24.95,0)" xlink:href="#au"/><use transform="matrix(0.05,0,0,0.05,34.95,0)" xlink:href="#ax"/><use transform="matrix(0.05,0,0,0.05,44.95,0)" xlink:href="#ay"/><use transform="matrix(0.05,0,0,0.05,59.900000000000006,0)" xlink:href="#ap"/></g><path fill="#333" d="M106-169C34-169 62-67 57 0H25v-261h32l-1 103c12-21 28-36 61-36 89 0 53 116 60 194h-32v-121c2-32-8-49-39-48" id="aC"/><g id="h"><use transform="matrix(0.05,0,0,0.05,0,0)" xlink:href="#aA"/><use transform="matrix(0.05,0,0,0.05,12,0)" xlink:href="#aB"/><use transform="matrix(0.05,0,0,0.05,22,0)" xlink:href="#av"/><use transform="matrix(0.05,0,0,0.05,27,0)" xlink:href="#aC"/><use transform="matrix(0.05,0,0,0.05,37,0)" xlink:href="#ar"/><use transform="matrix(0.05,0,0,0.05,42,0)" xlink:href="#as"/></g><path fill="#333" d="M127-220V0H93v-220H8v-28h204v28h-85" id="aD"/><path fill="#333" d="M179-190L93 31C79 59 56 82 12 73V49c39 6 53-20 64-50L1-190h34L92-34l54-156h33" id="aE"/><path fill="#333" d="M115-194c55 1 70 41 70 98S169 2 115 4C84 4 66-9 55-30l1 105H24l-1-265h31l2 30c10-21 28-34 59-34zm-8 174c40 0 45-34 45-75s-6-73-45-74c-42 0-51 32-51 76 0 43 10 73 51 73" id="aF"/><g id="i"><use transform="matrix(0.05,0,0,0.05,0,0)" xlink:href="#aD"/><use transform="matrix(0.05,0,0,0.05,9.950000000000001,0)" xlink:href="#aE"/><use transform="matrix(0.05,0,0,0.05,18.950000000000003,0)" xlink:href="#aF"/><use transform="matrix(0.05,0,0,0.05,28.950000000000003,0)" xlink:href="#ap"/></g><g id="j"><use transform="matrix(0.05,0,0,0.05,0,0)" xlink:href="#an"/><use transform="matrix(0.05,0,0,0.05,12.950000000000001,0)" xlink:href="#ao"/><use transform="matrix(0.05,0,0,0.05,21.950000000000003,0)" xlink:href="#ap"/><use transform="matrix(0.05,0,0,0.05,31.950000000000003,0)" xlink:href="#aq"/><use transform="matrix(0.05,0,0,0.05,37.900000000000006,0)" xlink:href="#aD"/><use transform="matrix(0.05,0,0,0.05,47.85000000000001,0)" xlink:href="#aE"/><use transform="matrix(0.05,0,0,0.05,56.85,0)" xlink:href="#aF"/><use transform="matrix(0.05,0,0,0.05,66.85000000000001,0)" xlink:href="#ap"/></g><path fill="#333" d="M63-220v92h138v28H63V0H30v-248h175v28H63" id="aG"/><path fill="#333" d="M115-194c53 0 69 39 70 98 0 66-23 100-70 100C84 3 66-7 56-30L54 0H23l1-261h32v101c10-23 28-34 59-34zm-8 174c40 0 45-34 45-75 0-40-5-75-45-74-42 0-51 32-51 76 0 43 10 73 51 73" id="aH"/><g id="k"><use transform="matrix(0.05,0,0,0.05,0,0)" xlink:href="#aG"/><use transform="matrix(0.05,0,0,0.05,10.950000000000001,0)" xlink:href="#at"/><use transform="matrix(0.05,0,0,0.05,14.9,0)" xlink:href="#aq"/><use transform="matrix(0.05,0,0,0.05,20.85,0)" xlink:href="#ap"/><use transform="matrix(0.05,0,0,0.05,30.85,0)" xlink:href="#aH"/><use transform="matrix(0.05,0,0,0.05,40.85,0)" xlink:href="#ax"/><use transform="matrix(0.05,0,0,0.05,50.85,0)" xlink:href="#ao"/><use transform="matrix(0.05,0,0,0.05,59.85,0)" xlink:href="#ap"/></g><g id="l"><use transform="matrix(0.05,0,0,0.05,0,0)" xlink:href="#aA"/><use transform="matrix(0.05,0,0,0.05,12,0)" xlink:href="#aB"/><use transform="matrix(0.05,0,0,0.05,22,0)" xlink:href="#av"/><use transform="matrix(0.05,0,0,0.05,27,0)" xlink:href="#aC"/></g><path fill="#333" d="M30-248c87 1 191-15 191 75 0 78-77 80-158 76V0H30v-248zm33 125c57 0 124 11 124-50 0-59-68-47-124-48v98" id="aI"/><path fill="#333" d="M194 0L95-120 63-95V0H30v-248h33v124l119-124h40L117-140 236 0h-42" id="aJ"/><g id="m"><use transform="matrix(0.05,0,0,0.05,0,0)" xlink:href="#aI"/><use transform="matrix(0.05,0,0,0.05,12,0)" xlink:href="#aJ"/></g><path fill="#333" d="M100-194c62-1 85 37 85 99 1 63-27 99-86 99S16-35 15-95c0-66 28-99 85-99zM99-20c44 1 53-31 53-75 0-43-8-75-51-75s-53 32-53 75 10 74 51 75" id="aK"/><path fill="#333" d="M101-234c-31-9-42 10-38 44h38v23H63V0H32v-167H5v-23h27c-7-52 17-82 69-68v24" id="aL"/><path fill="#333" d="M24 0v-261h32V0H24" id="aM"/><g id="n"><use transform="matrix(0.05,0,0,0.05,0,0)" xlink:href="#aI"/><use transform="matrix(0.05,0,0,0.05,12,0)" xlink:href="#aq"/><use transform="matrix(0.05,0,0,0.05,17.95,0)" xlink:href="#aK"/><use transform="matrix(0.05,0,0,0.05,27.950000000000003,0)" xlink:href="#aL"/><use transform="matrix(0.05,0,0,0.05,32.95,0)" xlink:href="#at"/><use transform="matrix(0.05,0,0,0.05,36.900000000000006,0)" xlink:href="#aM"/><use transform="matrix(0.05,0,0,0.05,40.85000000000001,0)" xlink:href="#ap"/></g><g id="o"><use transform="matrix(0.05,0,0,0.05,0,0)" xlink:href="#aI"/><use transform="matrix(0.05,0,0,0.05,12,0)" xlink:href="#aq"/><use transform="matrix(0.05,0,0,0.05,17.95,0)" xlink:href="#aK"/><use transform="matrix(0.05,0,0,0.05,27.950000000000003,0)" xlink:href="#aL"/><use transform="matrix(0.05,0,0,0.05,32.95,0)" xlink:href="#at"/><use transform="matrix(0.05,0,0,0.05,36.900000000000006,0)" xlink:href="#aM"/><use transform="matrix(0.05,0,0,0.05,40.85000000000001,0)" xlink:href="#ap"/><use transform="matrix(0.05,0,0,0.05,50.85000000000001,0)" xlink:href="#ar"/><use transform="matrix(0.05,0,0,0.05,55.85,0)" xlink:href="#as"/><path fill="#333" d="M-.9 1.25h67.65v1.32H-.9z"/></g><g id="p"><use transform="matrix(0.05,0,0,0.05,0,0)" xlink:href="#an"/><use transform="matrix(0.05,0,0,0.05,12.950000000000001,0)" xlink:href="#ao"/><use transform="matrix(0.05,0,0,0.05,21.950000000000003,0)" xlink:href="#ap"/><use transform="matrix(0.05,0,0,0.05,31.950000000000003,0)" xlink:href="#aq"/><use transform="matrix(0.05,0,0,0.05,37.900000000000006,0)" xlink:href="#ar"/><use transform="matrix(0.05,0,0,0.05,42.900000000000006,0)" xlink:href="#as"/></g><g id="q"><use transform="matrix(0.05,0,0,0.05,0,0)" xlink:href="#aI"/><use transform="matrix(0.05,0,0,0.05,12,0)" xlink:href="#aq"/><use transform="matrix(0.05,0,0,0.05,17.95,0)" xlink:href="#aK"/><use transform="matrix(0.05,0,0,0.05,27.950000000000003,0)" xlink:href="#aL"/><use transform="matrix(0.05,0,0,0.05,32.95,0)" xlink:href="#at"/><use transform="matrix(0.05,0,0,0.05,36.900000000000006,0)" xlink:href="#aM"/><use transform="matrix(0.05,0,0,0.05,40.85000000000001,0)" xlink:href="#ap"/><use transform="matrix(0.05,0,0,0.05,50.85000000000001,0)" xlink:href="#ar"/><use transform="matrix(0.05,0,0,0.05,55.85,0)" xlink:href="#ay"/><use transform="matrix(0.05,0,0,0.05,70.80000000000001,0)" xlink:href="#az"/></g><path fill="#333" d="M160-131c35 5 61 23 61 61C221 17 115-2 30 0v-248c76 3 177-17 177 60 0 33-19 50-47 57zm-97-11c50-1 110 9 110-42 0-47-63-36-110-37v79zm0 115c55-2 124 14 124-45 0-56-70-42-124-44v89" id="aN"/><g id="r"><use transform="matrix(0.05,0,0,0.05,0,0)" xlink:href="#aN"/><use transform="matrix(0.05,0,0,0.05,12,0)" xlink:href="#at"/><use transform="matrix(0.05,0,0,0.05,15.949999999999998,0)" xlink:href="#aK"/></g><path fill="#333" d="M30-248c118-7 216 8 213 122C240-48 200 0 122 0H30v-248zM63-27c89 8 146-16 146-99s-60-101-146-95v194" id="aO"/><path fill="#333" d="M143 0L79-87 56-68V0H24v-261h32v163l83-92h37l-77 82L181 0h-38" id="aP"/><path fill="#333" d="M240 0l2-218c-23 76-54 145-80 218h-23L58-218 59 0H30v-248h44l77 211c21-75 51-140 76-211h43V0h-30" id="aQ"/><g id="s"><use transform="matrix(0.05,0,0,0.05,0,0)" xlink:href="#aO"/><use transform="matrix(0.05,0,0,0.05,12.950000000000001,0)" xlink:href="#ax"/><use transform="matrix(0.05,0,0,0.05,22.950000000000003,0)" xlink:href="#aq"/><use transform="matrix(0.05,0,0,0.05,28.900000000000002,0)" xlink:href="#aP"/><use transform="matrix(0.05,0,0,0.05,37.900000000000006,0)" xlink:href="#aQ"/><use transform="matrix(0.05,0,0,0.05,52.85,0)" xlink:href="#aK"/><use transform="matrix(0.05,0,0,0.05,62.85,0)" xlink:href="#as"/><use transform="matrix(0.05,0,0,0.05,72.85000000000001,0)" xlink:href="#ap"/></g><g id="t"><use transform="matrix(0.05,0,0,0.05,0,0)" xlink:href="#aH"/><use transform="matrix(0.05,0,0,0.05,10,0)" xlink:href="#at"/><use transform="matrix(0.05,0,0,0.05,13.949999999999998,0)" xlink:href="#av"/></g><g id="u"><use transform="matrix(0.05,0,0,0.05,0,0)" xlink:href="#aI"/><use transform="matrix(0.05,0,0,0.05,12,0)" xlink:href="#ap"/><use transform="matrix(0.05,0,0,0.05,22,0)" xlink:href="#av"/><use transform="matrix(0.05,0,0,0.05,27,0)" xlink:href="#ar"/><use transform="matrix(0.05,0,0,0.05,32,0)" xlink:href="#as"/><use transform="matrix(0.05,0,0,0.05,42,0)" xlink:href="#ao"/></g><path fill="#333" d="M96-169c-40 0-48 33-48 73s9 75 48 75c24 0 41-14 43-38l32 2c-6 37-31 61-74 61-59 0-76-41-82-99-10-93 101-131 147-64 4 7 5 14 7 22l-32 3c-4-21-16-35-41-35" id="aR"/><g id="v"><use transform="matrix(0.05,0,0,0.05,0,0)" xlink:href="#aq"/><use transform="matrix(0.05,0,0,0.05,5.95,0)" xlink:href="#ap"/><use transform="matrix(0.05,0,0,0.05,15.949999999999998,0)" xlink:href="#aL"/><use transform="matrix(0.05,0,0,0.05,20.95,0)" xlink:href="#ap"/><use transform="matrix(0.05,0,0,0.05,30.950000000000003,0)" xlink:href="#aq"/><use transform="matrix(0.05,0,0,0.05,36.9,0)" xlink:href="#ap"/><use transform="matrix(0.05,0,0,0.05,46.9,0)" xlink:href="#au"/><use transform="matrix(0.05,0,0,0.05,56.900000000000006,0)" xlink:href="#aR"/><use transform="matrix(0.05,0,0,0.05,65.9,0)" xlink:href="#ap"/></g><g id="x"><use transform="matrix(0.05,0,0,0.05,0,0)" xlink:href="#aG"/><use transform="matrix(0.05,0,0,0.05,10.950000000000001,0)" xlink:href="#aK"/><use transform="matrix(0.05,0,0,0.05,20.950000000000003,0)" xlink:href="#aq"/><use transform="matrix(0.05,0,0,0.05,26.900000000000002,0)" xlink:href="#aB"/><use transform="matrix(0.05,0,0,0.05,36.900000000000006,0)" xlink:href="#ay"/></g><g id="y"><use transform="matrix(0.05,0,0,0.05,0,0)" xlink:href="#aG"/><use transform="matrix(0.05,0,0,0.05,10.950000000000001,0)" xlink:href="#aK"/><use transform="matrix(0.05,0,0,0.05,20.950000000000003,0)" xlink:href="#aq"/><use transform="matrix(0.05,0,0,0.05,26.900000000000002,0)" xlink:href="#aB"/><use transform="matrix(0.05,0,0,0.05,36.900000000000006,0)" xlink:href="#ay"/><use transform="matrix(0.05,0,0,0.05,51.85,0)" xlink:href="#ar"/><use transform="matrix(0.05,0,0,0.05,56.85,0)" xlink:href="#as"/><path fill="#333" d="M-.9 1.25h68.65v1.32H-.9z"/></g><g id="z"><use transform="matrix(0.05,0,0,0.05,0,0)" xlink:href="#aO"/><use transform="matrix(0.05,0,0,0.05,12.950000000000001,0)" xlink:href="#ap"/><use transform="matrix(0.05,0,0,0.05,22.950000000000003,0)" xlink:href="#ao"/><use transform="matrix(0.05,0,0,0.05,31.950000000000003,0)" xlink:href="#aR"/><use transform="matrix(0.05,0,0,0.05,40.95,0)" xlink:href="#aq"/><use transform="matrix(0.05,0,0,0.05,46.900000000000006,0)" xlink:href="#at"/><use transform="matrix(0.05,0,0,0.05,50.85000000000001,0)" xlink:href="#aF"/><use transform="matrix(0.05,0,0,0.05,60.85,0)" xlink:href="#av"/><use transform="matrix(0.05,0,0,0.05,65.85000000000001,0)" xlink:href="#at"/><use transform="matrix(0.05,0,0,0.05,69.80000000000001,0)" xlink:href="#aK"/><use transform="matrix(0.05,0,0,0.05,79.80000000000001,0)" xlink:href="#au"/></g><path fill="#333" d="M137 0h-34L2-248h35l83 218 83-218h36" id="aS"/><g id="A"><use transform="matrix(0.05,0,0,0.05,0,0)" xlink:href="#aS"/><use transform="matrix(0.05,0,0,0.05,11.65,0)" xlink:href="#at"/><use transform="matrix(0.05,0,0,0.05,15.600000000000001,0)" xlink:href="#ao"/><use transform="matrix(0.05,0,0,0.05,24.6,0)" xlink:href="#at"/><use transform="matrix(0.05,0,0,0.05,28.55,0)" xlink:href="#aH"/><use transform="matrix(0.05,0,0,0.05,38.55,0)" xlink:href="#at"/><use transform="matrix(0.05,0,0,0.05,42.5,0)" xlink:href="#aM"/><use transform="matrix(0.05,0,0,0.05,46.45,0)" xlink:href="#at"/><use transform="matrix(0.05,0,0,0.05,50.400000000000006,0)" xlink:href="#av"/><use transform="matrix(0.05,0,0,0.05,55.400000000000006,0)" xlink:href="#aE"/></g><path fill="#333" d="M212-179c-10-28-35-45-73-45-59 0-87 40-87 99 0 60 29 101 89 101 43 0 62-24 78-52l27 14C228-24 195 4 139 4 59 4 22-46 18-125c-6-104 99-153 187-111 19 9 31 26 39 46" id="aT"/><g id="B"><use transform="matrix(0.05,0,0,0.05,0,0)" xlink:href="#aT"/><use transform="matrix(0.05,0,0,0.05,12.950000000000001,0)" xlink:href="#aq"/><use transform="matrix(0.05,0,0,0.05,18.900000000000002,0)" xlink:href="#ap"/><use transform="matrix(0.05,0,0,0.05,28.900000000000002,0)" xlink:href="#ax"/><use transform="matrix(0.05,0,0,0.05,38.900000000000006,0)" xlink:href="#av"/><use transform="matrix(0.05,0,0,0.05,43.900000000000006,0)" xlink:href="#ap"/><use transform="matrix(0.05,0,0,0.05,53.900000000000006,0)" xlink:href="#as"/><use transform="matrix(0.05,0,0,0.05,63.900000000000006,0)" xlink:href="#aA"/><use transform="matrix(0.05,0,0,0.05,75.9,0)" xlink:href="#av"/></g><g id="C"><use transform="matrix(0.05,0,0,0.05,0,0)" xlink:href="#aD"/><use transform="matrix(0.05,0,0,0.05,10.3,0)" xlink:href="#at"/><use transform="matrix(0.05,0,0,0.05,14.25,0)" xlink:href="#ay"/><use transform="matrix(0.05,0,0,0.05,29.200000000000003,0)" xlink:href="#ap"/><use transform="matrix(0.05,0,0,0.05,39.2,0)" xlink:href="#ao"/><use transform="matrix(0.05,0,0,0.05,48.2,0)" xlink:href="#av"/><use transform="matrix(0.05,0,0,0.05,53.2,0)" xlink:href="#ax"/><use transform="matrix(0.05,0,0,0.05,63.2,0)" xlink:href="#ay"/><use transform="matrix(0.05,0,0,0.05,78.15,0)" xlink:href="#aF"/></g><g id="D"><use transform="matrix(0.05,0,0,0.05,0,0)" xlink:href="#an"/><use transform="matrix(0.05,0,0,0.05,12.950000000000001,0)" xlink:href="#aF"/><use transform="matrix(0.05,0,0,0.05,22.950000000000003,0)" xlink:href="#as"/><use transform="matrix(0.05,0,0,0.05,32.95,0)" xlink:href="#ax"/><use transform="matrix(0.05,0,0,0.05,42.95,0)" xlink:href="#av"/><use transform="matrix(0.05,0,0,0.05,47.95,0)" xlink:href="#ap"/><use transform="matrix(0.05,0,0,0.05,57.95,0)" xlink:href="#as"/><use transform="matrix(0.05,0,0,0.05,67.95,0)" xlink:href="#aA"/><use transform="matrix(0.05,0,0,0.05,79.95,0)" xlink:href="#av"/></g><g id="E"><use transform="matrix(0.05,0,0,0.05,0,0)" xlink:href="#aG"/><use transform="matrix(0.05,0,0,0.05,10.950000000000001,0)" xlink:href="#aK"/><use transform="matrix(0.05,0,0,0.05,20.950000000000003,0)" xlink:href="#aq"/><use transform="matrix(0.05,0,0,0.05,26.900000000000002,0)" xlink:href="#aB"/><use transform="matrix(0.05,0,0,0.05,36.900000000000006,0)" xlink:href="#ay"/></g><g id="F"><use transform="matrix(0.05,0,0,0.05,0,0)" xlink:href="#aQ"/><use transform="matrix(0.05,0,0,0.05,14.950000000000001,0)" xlink:href="#ap"/><use transform="matrix(0.05,0,0,0.05,24.950000000000003,0)" xlink:href="#ay"/><use transform="matrix(0.05,0,0,0.05,39.900000000000006,0)" xlink:href="#aH"/><use transform="matrix(0.05,0,0,0.05,49.900000000000006,0)" xlink:href="#ap"/><use transform="matrix(0.05,0,0,0.05,59.900000000000006,0)" xlink:href="#aq"/><use transform="matrix(0.05,0,0,0.05,65.85000000000001,0)" xlink:href="#ao"/><use transform="matrix(0.05,0,0,0.05,74.85000000000001,0)" xlink:href="#aC"/><use transform="matrix(0.05,0,0,0.05,84.85000000000001,0)" xlink:href="#at"/><use transform="matrix(0.05,0,0,0.05,88.80000000000001,0)" xlink:href="#aF"/></g><g id="G"><use transform="matrix(0.05,0,0,0.05,0,0)" xlink:href="#aQ"/><use transform="matrix(0.05,0,0,0.05,14.950000000000001,0)" xlink:href="#ap"/><use transform="matrix(0.05,0,0,0.05,24.950000000000003,0)" xlink:href="#ay"/><use transform="matrix(0.05,0,0,0.05,39.900000000000006,0)" xlink:href="#aH"/><use transform="matrix(0.05,0,0,0.05,49.900000000000006,0)" xlink:href="#ap"/><use transform="matrix(0.05,0,0,0.05,59.900000000000006,0)" xlink:href="#aq"/><use transform="matrix(0.05,0,0,0.05,65.85000000000001,0)" xlink:href="#ao"/><use transform="matrix(0.05,0,0,0.05,74.85000000000001,0)" xlink:href="#aC"/><use transform="matrix(0.05,0,0,0.05,84.85000000000001,0)" xlink:href="#at"/><use transform="matrix(0.05,0,0,0.05,88.80000000000001,0)" xlink:href="#aF"/><use transform="matrix(0.05,0,0,0.05,98.80000000000001,0)" xlink:href="#ar"/><use transform="matrix(0.05,0,0,0.05,103.80000000000001,0)" xlink:href="#as"/></g><g id="H"><use transform="matrix(0.05,0,0,0.05,0,0)" xlink:href="#aG"/><use transform="matrix(0.05,0,0,0.05,10.950000000000001,0)" xlink:href="#aK"/><use transform="matrix(0.05,0,0,0.05,20.950000000000003,0)" xlink:href="#aq"/><use transform="matrix(0.05,0,0,0.05,26.900000000000002,0)" xlink:href="#aB"/><use transform="matrix(0.05,0,0,0.05,36.900000000000006,0)" xlink:href="#ay"/><use transform="matrix(0.05,0,0,0.05,51.85,0)" xlink:href="#ar"/><use transform="matrix(0.05,0,0,0.05,56.85,0)" xlink:href="#as"/></g><g id="I"><use transform="matrix(0.05,0,0,0.05,0,0)" xlink:href="#aI"/><use transform="matrix(0.05,0,0,0.05,12,0)" xlink:href="#aK"/><use transform="matrix(0.05,0,0,0.05,22,0)" xlink:href="#ao"/><use transform="matrix(0.05,0,0,0.05,31,0)" xlink:href="#av"/><use transform="matrix(0.05,0,0,0.05,36,0)" xlink:href="#ao"/></g><g id="J"><use transform="matrix(0.05,0,0,0.05,0,0)" xlink:href="#aI"/><use transform="matrix(0.05,0,0,0.05,12,0)" xlink:href="#aK"/><use transform="matrix(0.05,0,0,0.05,22,0)" xlink:href="#ao"/><use transform="matrix(0.05,0,0,0.05,31,0)" xlink:href="#av"/><use transform="matrix(0.05,0,0,0.05,36,0)" xlink:href="#ar"/><use transform="matrix(0.05,0,0,0.05,41,0)" xlink:href="#as"/><path fill="#333" d="M-.9 1.25h52.8v1.32H-.9z"/></g><g id="K"><use transform="matrix(0.05,0,0,0.05,0,0)" xlink:href="#aT"/><use transform="matrix(0.05,0,0,0.05,12.950000000000001,0)" xlink:href="#aK"/><use transform="matrix(0.05,0,0,0.05,22.950000000000003,0)" xlink:href="#au"/><use transform="matrix(0.05,0,0,0.05,32.95,0)" xlink:href="#av"/><use transform="matrix(0.05,0,0,0.05,37.95,0)" xlink:href="#ap"/><use transform="matrix(0.05,0,0,0.05,47.95,0)" xlink:href="#au"/><use transform="matrix(0.05,0,0,0.05,57.95,0)" xlink:href="#av"/></g><g id="L"><use transform="matrix(0.05,0,0,0.05,0,0)" xlink:href="#ar"/><use transform="matrix(0.05,0,0,0.05,5,0)" xlink:href="#ay"/><use transform="matrix(0.05,0,0,0.05,19.950000000000003,0)" xlink:href="#az"/><use transform="matrix(0.05,0,0,0.05,29.950000000000003,0)" xlink:href="#an"/><use transform="matrix(0.05,0,0,0.05,42.900000000000006,0)" xlink:href="#aq"/><use transform="matrix(0.05,0,0,0.05,48.85000000000001,0)" xlink:href="#aM"/></g><g id="M"><use transform="matrix(0.05,0,0,0.05,0,0)" xlink:href="#av"/><use transform="matrix(0.05,0,0,0.05,5,0)" xlink:href="#at"/><use transform="matrix(0.05,0,0,0.05,8.95,0)" xlink:href="#ay"/><use transform="matrix(0.05,0,0,0.05,23.9,0)" xlink:href="#ap"/><use transform="matrix(0.05,0,0,0.05,33.9,0)" xlink:href="#ao"/><use transform="matrix(0.05,0,0,0.05,42.9,0)" xlink:href="#av"/><use transform="matrix(0.05,0,0,0.05,47.9,0)" xlink:href="#ax"/><use transform="matrix(0.05,0,0,0.05,57.900000000000006,0)" xlink:href="#ay"/><use transform="matrix(0.05,0,0,0.05,72.85,0)" xlink:href="#aF"/></g><g id="N"><use transform="matrix(0.05,0,0,0.05,0,0)" xlink:href="#aI"/><use transform="matrix(0.05,0,0,0.05,12,0)" xlink:href="#ax"/><use transform="matrix(0.05,0,0,0.05,22,0)" xlink:href="#aq"/><use transform="matrix(0.05,0,0,0.05,27.950000000000003,0)" xlink:href="#ap"/><use transform="matrix(0.05,0,0,0.05,37.95,0)" xlink:href="#au"/><use transform="matrix(0.05,0,0,0.05,47.95,0)" xlink:href="#av"/><use transform="matrix(0.05,0,0,0.05,52.95,0)" xlink:href="#ar"/><use transform="matrix(0.05,0,0,0.05,57.95,0)" xlink:href="#as"/></g><g id="O"><use transform="matrix(0.05,0,0,0.05,0,0)" xlink:href="#aI"/><use transform="matrix(0.05,0,0,0.05,12,0)" xlink:href="#ap"/><use transform="matrix(0.05,0,0,0.05,22,0)" xlink:href="#av"/><use transform="matrix(0.05,0,0,0.05,27,0)" xlink:href="#aI"/><use transform="matrix(0.05,0,0,0.05,39,0)" xlink:href="#aq"/><use transform="matrix(0.05,0,0,0.05,44.95,0)" xlink:href="#aK"/><use transform="matrix(0.05,0,0,0.05,54.95,0)" xlink:href="#aL"/><use transform="matrix(0.05,0,0,0.05,59.95,0)" xlink:href="#at"/><use transform="matrix(0.05,0,0,0.05,63.900000000000006,0)" xlink:href="#aM"/><use transform="matrix(0.05,0,0,0.05,67.85000000000001,0)" xlink:href="#ap"/></g><path fill="#333" d="M140-251c81 0 123 46 123 126C263-46 219 4 140 4 59 4 17-45 17-125s42-126 123-126zm0 227c63 0 89-41 89-101s-29-99-89-99c-61 0-89 39-89 99S79-25 140-24" id="aU"/><path fill="#333" d="M206 0h-36l-40-164L89 0H53L-1-190h32L70-26l43-164h34l41 164 42-164h31" id="aV"/><g id="P"><use transform="matrix(0.05,0,0,0.05,0,0)" xlink:href="#aU"/><use transform="matrix(0.05,0,0,0.05,14,0)" xlink:href="#aV"/><use transform="matrix(0.05,0,0,0.05,26.950000000000003,0)" xlink:href="#au"/><use transform="matrix(0.05,0,0,0.05,36.95,0)" xlink:href="#ap"/><use transform="matrix(0.05,0,0,0.05,46.95,0)" xlink:href="#aq"/><use transform="matrix(0.05,0,0,0.05,52.900000000000006,0)" xlink:href="#ar"/><use transform="matrix(0.05,0,0,0.05,57.900000000000006,0)" xlink:href="#as"/></g><path fill="#333" d="M185-189c-5-48-123-54-124 2 14 75 158 14 163 119 3 78-121 87-175 55-17-10-28-26-33-46l33-7c5 56 141 63 141-1 0-78-155-14-162-118-5-82 145-84 179-34 5 7 8 16 11 25" id="aW"/><g id="Q"><use transform="matrix(0.05,0,0,0.05,0,0)" xlink:href="#aW"/><use transform="matrix(0.05,0,0,0.05,12,0)" xlink:href="#aF"/><use transform="matrix(0.05,0,0,0.05,22,0)" xlink:href="#ap"/><use transform="matrix(0.05,0,0,0.05,32,0)" xlink:href="#aR"/><use transform="matrix(0.05,0,0,0.05,41,0)" xlink:href="#at"/><use transform="matrix(0.05,0,0,0.05,44.95,0)" xlink:href="#ap"/><use transform="matrix(0.05,0,0,0.05,54.95,0)" xlink:href="#ao"/></g><g id="R"><use transform="matrix(0.05,0,0,0.05,0,0)" xlink:href="#aN"/><use transform="matrix(0.05,0,0,0.05,12,0)" xlink:href="#aq"/><use transform="matrix(0.05,0,0,0.05,17.95,0)" xlink:href="#ap"/><use transform="matrix(0.05,0,0,0.05,27.950000000000003,0)" xlink:href="#ap"/><use transform="matrix(0.05,0,0,0.05,37.95,0)" xlink:href="#as"/></g><path fill="#333" d="M30 0v-248h33v221h125V0H30" id="aX"/><g id="S"><use transform="matrix(0.05,0,0,0.05,0,0)" xlink:href="#aX"/><use transform="matrix(0.05,0,0,0.05,10,0)" xlink:href="#at"/><use transform="matrix(0.05,0,0,0.05,13.949999999999998,0)" xlink:href="#aP"/><use transform="matrix(0.05,0,0,0.05,22.95,0)" xlink:href="#ap"/><use transform="matrix(0.05,0,0,0.05,32.95,0)" xlink:href="#ao"/></g><g id="T"><use transform="matrix(0.05,0,0,0.05,0,0)" xlink:href="#aX"/><use transform="matrix(0.05,0,0,0.05,10,0)" xlink:href="#at"/><use transform="matrix(0.05,0,0,0.05,13.949999999999998,0)" xlink:href="#aP"/><use transform="matrix(0.05,0,0,0.05,22.95,0)" xlink:href="#ap"/><use transform="matrix(0.05,0,0,0.05,32.95,0)" xlink:href="#ar"/><use transform="matrix(0.05,0,0,0.05,37.95,0)" xlink:href="#as"/><path fill="#333" d="M-.9 1.25h49.75v1.32H-.9z"/></g><g id="U"><use transform="matrix(0.05,0,0,0.05,0,0)" xlink:href="#aI"/><use transform="matrix(0.05,0,0,0.05,12,0)" xlink:href="#aK"/><use transform="matrix(0.05,0,0,0.05,22,0)" xlink:href="#ao"/><use transform="matrix(0.05,0,0,0.05,31,0)" xlink:href="#av"/><use transform="matrix(0.05,0,0,0.05,36,0)" xlink:href="#ar"/><use transform="matrix(0.05,0,0,0.05,41,0)" xlink:href="#as"/></g><path fill="#333" d="M108 0H70L1-190h34L89-25l56-165h34" id="aY"/><g id="V"><use transform="matrix(0.05,0,0,0.05,0,0)" xlink:href="#aW"/><use transform="matrix(0.05,0,0,0.05,12,0)" xlink:href="#ax"/><use transform="matrix(0.05,0,0,0.05,22,0)" xlink:href="#aY"/><use transform="matrix(0.05,0,0,0.05,31,0)" xlink:href="#ap"/><use transform="matrix(0.05,0,0,0.05,41,0)" xlink:href="#ao"/></g><g id="W"><use transform="matrix(0.05,0,0,0.05,0,0)" xlink:href="#aW"/><use transform="matrix(0.05,0,0,0.05,12,0)" xlink:href="#ax"/><use transform="matrix(0.05,0,0,0.05,22,0)" xlink:href="#aY"/><use transform="matrix(0.05,0,0,0.05,31,0)" xlink:href="#ap"/><use transform="matrix(0.05,0,0,0.05,41,0)" xlink:href="#ar"/><use transform="matrix(0.05,0,0,0.05,46,0)" xlink:href="#as"/><path fill="#333" d="M-.9 1.25h57.8v1.32H-.9z"/></g><g id="X"><use transform="matrix(0.05,0,0,0.05,0,0)" xlink:href="#aw"/><use transform="matrix(0.05,0,0,0.05,12.950000000000001,0)" xlink:href="#aK"/><use transform="matrix(0.05,0,0,0.05,22.950000000000003,0)" xlink:href="#av"/><use transform="matrix(0.05,0,0,0.05,27.950000000000003,0)" xlink:href="#at"/><use transform="matrix(0.05,0,0,0.05,31.900000000000002,0)" xlink:href="#aL"/><use transform="matrix(0.05,0,0,0.05,36.900000000000006,0)" xlink:href="#at"/><use transform="matrix(0.05,0,0,0.05,40.85000000000001,0)" xlink:href="#aR"/><use transform="matrix(0.05,0,0,0.05,49.85000000000001,0)" xlink:href="#ax"/><use transform="matrix(0.05,0,0,0.05,59.85,0)" xlink:href="#av"/><use transform="matrix(0.05,0,0,0.05,64.85000000000001,0)" xlink:href="#at"/><use transform="matrix(0.05,0,0,0.05,68.80000000000001,0)" xlink:href="#aK"/><use transform="matrix(0.05,0,0,0.05,78.80000000000001,0)" xlink:href="#au"/><use transform="matrix(0.05,0,0,0.05,88.80000000000001,0)" xlink:href="#aD"/><use transform="matrix(0.05,0,0,0.05,98.75000000000001,0)" xlink:href="#aE"/><use transform="matrix(0.05,0,0,0.05,107.75,0)" xlink:href="#aF"/><use transform="matrix(0.05,0,0,0.05,117.75,0)" xlink:href="#ap"/></g><g id="Y"><use transform="matrix(0.05,0,0,0.05,0,0)" xlink:href="#aw"/><use transform="matrix(0.05,0,0,0.05,12.950000000000001,0)" xlink:href="#aK"/><use transform="matrix(0.05,0,0,0.05,22.950000000000003,0)" xlink:href="#av"/><use transform="matrix(0.05,0,0,0.05,27.950000000000003,0)" xlink:href="#at"/><use transform="matrix(0.05,0,0,0.05,31.900000000000002,0)" xlink:href="#aL"/><use transform="matrix(0.05,0,0,0.05,36.900000000000006,0)" xlink:href="#at"/><use transform="matrix(0.05,0,0,0.05,40.85000000000001,0)" xlink:href="#aR"/><use transform="matrix(0.05,0,0,0.05,49.85000000000001,0)" xlink:href="#ax"/><use transform="matrix(0.05,0,0,0.05,59.85,0)" xlink:href="#av"/><use transform="matrix(0.05,0,0,0.05,64.85000000000001,0)" xlink:href="#at"/><use transform="matrix(0.05,0,0,0.05,68.80000000000001,0)" xlink:href="#aK"/><use transform="matrix(0.05,0,0,0.05,78.80000000000001,0)" xlink:href="#au"/><use transform="matrix(0.05,0,0,0.05,88.80000000000001,0)" xlink:href="#aD"/><use transform="matrix(0.05,0,0,0.05,98.75000000000001,0)" xlink:href="#aE"/><use transform="matrix(0.05,0,0,0.05,107.75,0)" xlink:href="#aF"/><use transform="matrix(0.05,0,0,0.05,117.75,0)" xlink:href="#ap"/><use transform="matrix(0.05,0,0,0.05,127.75,0)" xlink:href="#ar"/><use transform="matrix(0.05,0,0,0.05,132.75,0)" xlink:href="#as"/><path fill="#333" d="M-.9 1.25h144.55v1.32H-.9z"/></g><g id="Z"><use transform="matrix(0.05,0,0,0.05,0,0)" xlink:href="#av"/><use transform="matrix(0.05,0,0,0.05,5,0)" xlink:href="#aE"/><use transform="matrix(0.05,0,0,0.05,14,0)" xlink:href="#aF"/><use transform="matrix(0.05,0,0,0.05,24,0)" xlink:href="#ap"/></g><g id="aa"><use transform="matrix(0.05,0,0,0.05,0,0)" xlink:href="#aw"/><use transform="matrix(0.05,0,0,0.05,12.950000000000001,0)" xlink:href="#aK"/><use transform="matrix(0.05,0,0,0.05,22.950000000000003,0)" xlink:href="#av"/><use transform="matrix(0.05,0,0,0.05,27.950000000000003,0)" xlink:href="#at"/><use transform="matrix(0.05,0,0,0.05,31.900000000000002,0)" xlink:href="#aL"/><use transform="matrix(0.05,0,0,0.05,36.900000000000006,0)" xlink:href="#at"/><use transform="matrix(0.05,0,0,0.05,40.85000000000001,0)" xlink:href="#aR"/><use transform="matrix(0.05,0,0,0.05,49.85000000000001,0)" xlink:href="#ax"/><use transform="matrix(0.05,0,0,0.05,59.85,0)" xlink:href="#av"/><use transform="matrix(0.05,0,0,0.05,64.85000000000001,0)" xlink:href="#at"/><use transform="matrix(0.05,0,0,0.05,68.80000000000001,0)" xlink:href="#aK"/><use transform="matrix(0.05,0,0,0.05,78.80000000000001,0)" xlink:href="#au"/></g><g id="ab"><use transform="matrix(0.05,0,0,0.05,0,0)" xlink:href="#aw"/><use transform="matrix(0.05,0,0,0.05,12.950000000000001,0)" xlink:href="#aK"/><use transform="matrix(0.05,0,0,0.05,22.950000000000003,0)" xlink:href="#av"/><use transform="matrix(0.05,0,0,0.05,27.950000000000003,0)" xlink:href="#at"/><use transform="matrix(0.05,0,0,0.05,31.900000000000002,0)" xlink:href="#aL"/><use transform="matrix(0.05,0,0,0.05,36.900000000000006,0)" xlink:href="#at"/><use transform="matrix(0.05,0,0,0.05,40.85000000000001,0)" xlink:href="#aR"/><use transform="matrix(0.05,0,0,0.05,49.85000000000001,0)" xlink:href="#ax"/><use transform="matrix(0.05,0,0,0.05,59.85,0)" xlink:href="#av"/><use transform="matrix(0.05,0,0,0.05,64.85000000000001,0)" xlink:href="#at"/><use transform="matrix(0.05,0,0,0.05,68.80000000000001,0)" xlink:href="#aK"/><use transform="matrix(0.05,0,0,0.05,78.80000000000001,0)" xlink:href="#au"/><use transform="matrix(0.05,0,0,0.05,88.80000000000001,0)" xlink:href="#ar"/><use transform="matrix(0.05,0,0,0.05,93.80000000000001,0)" xlink:href="#as"/><path fill="#333" d="M-.9 1.25h105.6v1.32H-.9z"/></g><g id="ac"><use transform="matrix(0.05,0,0,0.05,0,0)" xlink:href="#aw"/><use transform="matrix(0.05,0,0,0.05,12.950000000000001,0)" xlink:href="#aK"/><use transform="matrix(0.05,0,0,0.05,22.950000000000003,0)" xlink:href="#av"/><use transform="matrix(0.05,0,0,0.05,27.950000000000003,0)" xlink:href="#at"/><use transform="matrix(0.05,0,0,0.05,31.900000000000002,0)" xlink:href="#aL"/><use transform="matrix(0.05,0,0,0.05,36.900000000000006,0)" xlink:href="#at"/><use transform="matrix(0.05,0,0,0.05,40.85000000000001,0)" xlink:href="#aR"/><use transform="matrix(0.05,0,0,0.05,49.85000000000001,0)" xlink:href="#ax"/><use transform="matrix(0.05,0,0,0.05,59.85,0)" xlink:href="#av"/><use transform="matrix(0.05,0,0,0.05,64.85000000000001,0)" xlink:href="#at"/><use transform="matrix(0.05,0,0,0.05,68.80000000000001,0)" xlink:href="#aK"/><use transform="matrix(0.05,0,0,0.05,78.80000000000001,0)" xlink:href="#au"/><use transform="matrix(0.05,0,0,0.05,88.80000000000001,0)" xlink:href="#aD"/><use transform="matrix(0.05,0,0,0.05,98.75000000000001,0)" xlink:href="#aE"/><use transform="matrix(0.05,0,0,0.05,107.75,0)" xlink:href="#aF"/><use transform="matrix(0.05,0,0,0.05,117.75,0)" xlink:href="#ap"/><use transform="matrix(0.05,0,0,0.05,127.75,0)" xlink:href="#ar"/><use transform="matrix(0.05,0,0,0.05,132.75,0)" xlink:href="#as"/></g><path fill="#333" d="M233-177c-1 41-23 64-60 70L243 0h-38l-65-103H63V0H30v-248c88 3 205-21 203 71zM63-129c60-2 137 13 137-47 0-61-80-42-137-45v92" id="aZ"/><g id="ad"><use transform="matrix(0.05,0,0,0.05,0,0)" xlink:href="#aZ"/><use transform="matrix(0.05,0,0,0.05,12.950000000000001,0)" xlink:href="#ap"/><use transform="matrix(0.05,0,0,0.05,22.950000000000003,0)" xlink:href="#aL"/><use transform="matrix(0.05,0,0,0.05,27.950000000000003,0)" xlink:href="#ap"/><use transform="matrix(0.05,0,0,0.05,37.95,0)" xlink:href="#aq"/><use transform="matrix(0.05,0,0,0.05,43.900000000000006,0)" xlink:href="#ap"/><use transform="matrix(0.05,0,0,0.05,53.900000000000006,0)" xlink:href="#au"/><use transform="matrix(0.05,0,0,0.05,63.900000000000006,0)" xlink:href="#aR"/><use transform="matrix(0.05,0,0,0.05,72.9,0)" xlink:href="#ap"/><use transform="matrix(0.05,0,0,0.05,82.9,0)" xlink:href="#ar"/><use transform="matrix(0.05,0,0,0.05,87.9,0)" xlink:href="#as"/></g><g id="ae"><use transform="matrix(0.05,0,0,0.05,0,0)" xlink:href="#aZ"/><use transform="matrix(0.05,0,0,0.05,12.950000000000001,0)" xlink:href="#ap"/><use transform="matrix(0.05,0,0,0.05,22.950000000000003,0)" xlink:href="#ax"/><use transform="matrix(0.05,0,0,0.05,32.95,0)" xlink:href="#as"/></g><g id="af"><use transform="matrix(0.05,0,0,0.05,0,0)" xlink:href="#aH"/><use transform="matrix(0.05,0,0,0.05,10,0)" xlink:href="#aK"/><use transform="matrix(0.05,0,0,0.05,20,0)" xlink:href="#aK"/><use transform="matrix(0.05,0,0,0.05,30,0)" xlink:href="#aM"/><use transform="matrix(0.05,0,0,0.05,33.95,0)" xlink:href="#ap"/><use transform="matrix(0.05,0,0,0.05,43.95,0)" xlink:href="#ax"/><use transform="matrix(0.05,0,0,0.05,53.95,0)" xlink:href="#au"/></g><path fill="#333" d="M30 0v-248h187v28H63v79h144v27H63v87h162V0H30" id="ba"/><g id="ag"><use transform="matrix(0.05,0,0,0.05,0,0)" xlink:href="#ba"/><use transform="matrix(0.05,0,0,0.05,12,0)" xlink:href="#aY"/><use transform="matrix(0.05,0,0,0.05,21,0)" xlink:href="#ap"/><use transform="matrix(0.05,0,0,0.05,31,0)" xlink:href="#au"/><use transform="matrix(0.05,0,0,0.05,41,0)" xlink:href="#av"/></g><g id="ah"><use transform="matrix(0.05,0,0,0.05,0,0)" xlink:href="#ba"/><use transform="matrix(0.05,0,0,0.05,12,0)" xlink:href="#aY"/><use transform="matrix(0.05,0,0,0.05,21,0)" xlink:href="#ap"/><use transform="matrix(0.05,0,0,0.05,31,0)" xlink:href="#au"/><use transform="matrix(0.05,0,0,0.05,41,0)" xlink:href="#av"/><use transform="matrix(0.05,0,0,0.05,46,0)" xlink:href="#ar"/><use transform="matrix(0.05,0,0,0.05,51,0)" xlink:href="#as"/><path fill="#333" d="M-.9 1.25h62.8v1.32H-.9z"/></g><g id="ai"><use transform="matrix(0.05,0,0,0.05,0,0)" xlink:href="#ba"/><use transform="matrix(0.05,0,0,0.05,12,0)" xlink:href="#aY"/><use transform="matrix(0.05,0,0,0.05,21,0)" xlink:href="#ap"/><use transform="matrix(0.05,0,0,0.05,31,0)" xlink:href="#au"/><use transform="matrix(0.05,0,0,0.05,41,0)" xlink:href="#av"/><use transform="matrix(0.05,0,0,0.05,46,0)" xlink:href="#aD"/><use transform="matrix(0.05,0,0,0.05,55.95,0)" xlink:href="#aE"/><use transform="matrix(0.05,0,0,0.05,64.95,0)" xlink:href="#aF"/><use transform="matrix(0.05,0,0,0.05,74.95,0)" xlink:href="#ap"/><use transform="matrix(0.05,0,0,0.05,84.95,0)" xlink:href="#ar"/><use transform="matrix(0.05,0,0,0.05,89.95,0)" xlink:href="#as"/></g><g id="aj"><use transform="matrix(0.05,0,0,0.05,0,0)" xlink:href="#aW"/><use transform="matrix(0.05,0,0,0.05,12,0)" xlink:href="#av"/><use transform="matrix(0.05,0,0,0.05,17,0)" xlink:href="#ax"/><use transform="matrix(0.05,0,0,0.05,27,0)" xlink:href="#aq"/><use transform="matrix(0.05,0,0,0.05,32.95,0)" xlink:href="#av"/><use transform="matrix(0.05,0,0,0.05,37.95,0)" xlink:href="#aO"/><use transform="matrix(0.05,0,0,0.05,50.900000000000006,0)" xlink:href="#ax"/><use transform="matrix(0.05,0,0,0.05,60.900000000000006,0)" xlink:href="#av"/><use transform="matrix(0.05,0,0,0.05,65.9,0)" xlink:href="#ap"/></g><g id="ak"><use transform="matrix(0.05,0,0,0.05,0,0)" xlink:href="#ba"/><use transform="matrix(0.05,0,0,0.05,12,0)" xlink:href="#au"/><use transform="matrix(0.05,0,0,0.05,22,0)" xlink:href="#as"/><use transform="matrix(0.05,0,0,0.05,32,0)" xlink:href="#aO"/><use transform="matrix(0.05,0,0,0.05,44.95,0)" xlink:href="#ax"/><use transform="matrix(0.05,0,0,0.05,54.95,0)" xlink:href="#av"/><use transform="matrix(0.05,0,0,0.05,59.95,0)" xlink:href="#ap"/></g><g id="al"><use transform="matrix(0.05,0,0,0.05,0,0)" xlink:href="#ba"/><use transform="matrix(0.05,0,0,0.05,12,0)" xlink:href="#aY"/><use transform="matrix(0.05,0,0,0.05,21,0)" xlink:href="#ap"/><use transform="matrix(0.05,0,0,0.05,31,0)" xlink:href="#au"/><use transform="matrix(0.05,0,0,0.05,41,0)" xlink:href="#av"/><use transform="matrix(0.05,0,0,0.05,46,0)" xlink:href="#aD"/><use transform="matrix(0.05,0,0,0.05,55.95,0)" xlink:href="#aE"/><use transform="matrix(0.05,0,0,0.05,64.95,0)" xlink:href="#aF"/><use transform="matrix(0.05,0,0,0.05,74.95,0)" xlink:href="#ap"/></g><g id="am"><use transform="matrix(0.05,0,0,0.05,0,0)" xlink:href="#ba"/><use transform="matrix(0.05,0,0,0.05,12,0)" xlink:href="#aY"/><use transform="matrix(0.05,0,0,0.05,21,0)" xlink:href="#ap"/><use transform="matrix(0.05,0,0,0.05,31,0)" xlink:href="#au"/><use transform="matrix(0.05,0,0,0.05,41,0)" xlink:href="#av"/><use transform="matrix(0.05,0,0,0.05,46,0)" xlink:href="#aD"/><use transform="matrix(0.05,0,0,0.05,55.95,0)" xlink:href="#aE"/><use transform="matrix(0.05,0,0,0.05,64.95,0)" xlink:href="#aF"/><use transform="matrix(0.05,0,0,0.05,74.95,0)" xlink:href="#ap"/><use transform="matrix(0.05,0,0,0.05,84.95,0)" xlink:href="#ar"/><use transform="matrix(0.05,0,0,0.05,89.95,0)" xlink:href="#as"/><path fill="#333" d="M-.9 1.25h101.75v1.32H-.9z"/></g></defs></g></svg>